HIERARCHY
ROOT Root
{
  OFFSET 0.0 0.0 0.0
  CHANNELS 6 Xposition Yposition Zposition Zrotation Yrotation Xrotation
  JOINT Hips
  {
    OFFSET 0.0 100.0 0.0
    CHANNELS 6 Xposition Yposition Zposition Zrotation Yrotation Xrotation
    JOINT Spine1
    {
      OFFSET 5.003913 -0.037094 -0.013727
      CHANNELS 3 Zrotation Yrotation Xrotation
      JOINT Spine2
      {
        OFFSET 7.125363 -1e-06 0.0
        CHANNELS 3 Zrotation Yrotation Xrotation
        JOINT Chest
        {
          OFFSET 7.594027 1e-06 0.0
          CHANNELS 3 Zrotation Yrotation Xrotation
          JOINT Neck1
          {
            OFFSET 26.313086 -0.460272 -0.181672
            CHANNELS 3 Zrotation Yrotation Xrotation
            JOINT Neck2
            {
              OFFSET 8.045911 0.0 0.0
              CHANNELS 3 Zrotation Yrotation Xrotation
              JOINT Head
              {
                OFFSET 6.432774 0.0 0.0
                CHANNELS 3 Zrotation Yrotation Xrotation
                JOINT HeadEnd
                {
                  OFFSET 16.169773 0.06451 0.00362
                  CHANNELS 3 Zrotation Yrotation Xrotation
                }
                JOINT Jaw
                {
                  OFFSET 0.108741 3.12938 0.002639
                  CHANNELS 3 Zrotation Yrotation Xrotation
                }
                JOINT LeftEye
                {
                  OFFSET 4.45173 8.166359 3.206392
                  CHANNELS 3 Zrotation Yrotation Xrotation
                }
                JOINT RightEye
                {
                  OFFSET 4.436895 8.135758 -3.222429
                  CHANNELS 3 Zrotation Yrotation Xrotation
                }
              }
            }
          }
          JOINT LeftShoulder
          {
            OFFSET 23.218927 5.195579 1.621656
            CHANNELS 3 Zrotation Yrotation Xrotation
            JOINT LeftArm
            {
              OFFSET 15.902118 2e-06 -2e-06
              CHANNELS 3 Zrotation Yrotation Xrotation
              JOINT LeftForeArm
              {
                OFFSET 28.739307 0.0 -1e-06
                CHANNELS 3 Zrotation Yrotation Xrotation
                JOINT LeftHand
                {
                  OFFSET 27.093981 -4e-06 0.0
                  CHANNELS 3 Zrotation Yrotation Xrotation
                  JOINT LeftHandThumb1
                  {
                    OFFSET 2.276781 3.380274 0.83384
                    CHANNELS 3 Zrotation Yrotation Xrotation
                    JOINT LeftHandThumb2
                    {
                      OFFSET 4.705309 -1e-06 -1e-06
                      CHANNELS 3 Zrotation Yrotation Xrotation
                      JOINT LeftHandThumb3
                      {
                        OFFSET 2.798515 0.0 3e-06
                        CHANNELS 3 Zrotation Yrotation Xrotation
                        JOINT LeftHandThumbEnd
                        {
                          OFFSET 3.180793 4e-06 -4e-06
                          CHANNELS 3 Zrotation Yrotation Xrotation
                        }
                      }
                    }
                  }
                  JOINT LeftHandIndex1
                  {
                    OFFSET 3.247786 2.352677 0.137192
                    CHANNELS 3 Zrotation Yrotation Xrotation
                    JOINT LeftHandIndex2
                    {
                      OFFSET 6.367095 1e-06 0.0
                      CHANNELS 3 Zrotation Yrotation Xrotation
                      JOINT LeftHandIndex3
                      {
                        OFFSET 3.662364 0.0 0.0
                        CHANNELS 3 Zrotation Yrotation Xrotation
                        JOINT LeftHandIndex4
                        {
                          OFFSET 2.329242 4e-06 -4e-06
                          CHANNELS 3 Zrotation Yrotation Xrotation
                          JOINT LeftHandIndexEnd
                          {
                            OFFSET 2.767823 1e-06 0.0
                            CHANNELS 3 Zrotation Yrotation Xrotation
                          }
                        }
                      }
                    }
                  }
                  JOINT LeftHandMiddle1
                  {
                    OFFSET 3.163612 0.945023 -0.406112
                    CHANNELS 3 Zrotation Yrotation Xrotation
                    JOINT LeftHandMiddle2
                    {
                      OFFSET 6.276789 3e-06 0.0
                      CHANNELS 3 Zrotation Yrotation Xrotation
                      JOINT LeftHandMiddle3
                      {
                        OFFSET 4.35652 -1e-06 4e-06
                        CHANNELS 3 Zrotation Yrotation Xrotation
                        JOINT LeftHandMiddle4
                        {
                          OFFSET 2.996877 0.0 8e-06
                          CHANNELS 3 Zrotation Yrotation Xrotation
                          JOINT LeftHandMiddleEnd
                          {
                            OFFSET 2.323256 3e-06 -4e-06
                            CHANNELS 3 Zrotation Yrotation Xrotation
                          }
                        }
                      }
                    }
                  }
                  JOINT LeftHandRing1
                  {
                    OFFSET 2.882606 -0.309162 0.107445
                    CHANNELS 3 Zrotation Yrotation Xrotation
                    JOINT LeftHandRing2
                    {
                      OFFSET 6.033198 0.0 4e-06
                      CHANNELS 3 Zrotation Yrotation Xrotation
                      JOINT LeftHandRing3
                      {
                        OFFSET 4.350578 3e-06 0.0
                        CHANNELS 3 Zrotation Yrotation Xrotation
                        JOINT LeftHandRing4
                        {
                          OFFSET 2.651321 2e-06 -7e-06
                          CHANNELS 3 Zrotation Yrotation Xrotation
                          JOINT LeftHandRingEnd
                          {
                            OFFSET 1.937663 1e-06 -4e-06
                            CHANNELS 3 Zrotation Yrotation Xrotation
                          }
                        }
                      }
                    }
                  }
                  JOINT LeftHandPinky1
                  {
                    OFFSET 2.865315 -1.525436 0.575687
                    CHANNELS 3 Zrotation Yrotation Xrotation
                    JOINT LeftHandPinky2
                    {
                      OFFSET 5.54936 1e-06 -8e-06
                      CHANNELS 3 Zrotation Yrotation Xrotation
                      JOINT LeftHandPinky3
                      {
                        OFFSET 3.070974 0.0 -4e-06
                        CHANNELS 3 Zrotation Yrotation Xrotation
                        JOINT LeftHandPinky4
                        {
                          OFFSET 1.549672 1e-06 0.0
                          CHANNELS 3 Zrotation Yrotation Xrotation
                          JOINT LeftHandPinkyEnd
                          {
                            OFFSET 1.952123 0.0 0.0
                            CHANNELS 3 Zrotation Yrotation Xrotation
                          }
                        }
                      }
                    }
                  }
                }
              }
            }
          }
          JOINT RightShoulder
          {
            OFFSET 23.161716 5.296122 -1.380114
            CHANNELS 3 Zrotation Yrotation Xrotation
            JOINT RightArm
            {
              OFFSET -16.027195 -2e-06 1.1e-05
              CHANNELS 3 Zrotation Yrotation Xrotation
              JOINT RightForeArm
              {
                OFFSET -28.736639 4e-06 2e-06
                CHANNELS 3 Zrotation Yrotation Xrotation
                JOINT RightHand
                {
                  OFFSET -27.133619 6e-06 0.0
                  CHANNELS 3 Zrotation Yrotation Xrotation
                  JOINT RightHandThumb1
                  {
                    OFFSET -2.274328 -3.351035 -0.83067
                    CHANNELS 3 Zrotation Yrotation Xrotation
                    JOINT RightHandThumb2
                    {
                      OFFSET -4.703594 -3e-06 2e-06
                      CHANNELS 3 Zrotation Yrotation Xrotation
                      JOINT RightHandThumb3
                      {
                        OFFSET -2.794935 -4e-06 -3e-06
                        CHANNELS 3 Zrotation Yrotation Xrotation
                        JOINT RightHandThumbEnd
                        {
                          OFFSET -3.183852 4e-06 1e-06
                          CHANNELS 3 Zrotation Yrotation Xrotation
                        }
                      }
                    }
                  }
                  JOINT RightHandIndex1
                  {
                    OFFSET -3.253496 -2.33755 -0.127667
                    CHANNELS 3 Zrotation Yrotation Xrotation
                    JOINT RightHandIndex2
                    {
                      OFFSET -6.344434 0.0 0.0
                      CHANNELS 3 Zrotation Yrotation Xrotation
                      JOINT RightHandIndex3
                      {
                        OFFSET -3.654871 0.0 -8e-06
                        CHANNELS 3 Zrotation Yrotation Xrotation
                        JOINT RightHandIndex4
                        {
                          OFFSET -2.327586 -1e-06 0.0
                          CHANNELS 3 Zrotation Yrotation Xrotation
                          JOINT RightHandIndexEnd
                          {
                            OFFSET -2.770001 3e-06 8e-06
                            CHANNELS 3 Zrotation Yrotation Xrotation
                          }
                        }
                      }
                    }
                  }
                  JOINT RightHandMiddle1
                  {
                    OFFSET -3.168223 -0.944764 0.411762
                    CHANNELS 3 Zrotation Yrotation Xrotation
                    JOINT RightHandMiddle2
                    {
                      OFFSET -6.266691 -1e-06 -4e-06
                      CHANNELS 3 Zrotation Yrotation Xrotation
                      JOINT RightHandMiddle3
                      {
                        OFFSET -4.348901 0.0 0.0
                        CHANNELS 3 Zrotation Yrotation Xrotation
                        JOINT RightHandMiddle4
                        {
                          OFFSET -3.00024 2e-06 -4e-06
                          CHANNELS 3 Zrotation Yrotation Xrotation
                          JOINT RightHandMiddleEnd
                          {
                            OFFSET -2.321477 -4e-06 -4e-06
                            CHANNELS 3 Zrotation Yrotation Xrotation
                          }
                        }
                      }
                    }
                  }
                  JOINT RightHandRing1
                  {
                    OFFSET -2.885654 0.293261 -0.119232
                    CHANNELS 3 Zrotation Yrotation Xrotation
                    JOINT RightHandRing2
                    {
                      OFFSET -6.032835 -1e-06 -4e-06
                      CHANNELS 3 Zrotation Yrotation Xrotation
                      JOINT RightHandRing3
                      {
                        OFFSET -4.33881 0.0 -4e-06
                        CHANNELS 3 Zrotation Yrotation Xrotation
                        JOINT RightHandRing4
                        {
                          OFFSET -2.654903 -4e-06 -4e-06
                          CHANNELS 3 Zrotation Yrotation Xrotation
                          JOINT RightHandRingEnd
                          {
                            OFFSET -1.935122 0.0 4e-06
                            CHANNELS 3 Zrotation Yrotation Xrotation
                          }
                        }
                      }
                    }
                  }
                  JOINT RightHandPinky1
                  {
                    OFFSET -2.866241 1.503904 -0.60527
                    CHANNELS 3 Zrotation Yrotation Xrotation
                    JOINT RightHandPinky2
                    {
                      OFFSET -5.553177 -2e-06 0.0
                      CHANNELS 3 Zrotation Yrotation Xrotation
                      JOINT RightHandPinky3
                      {
                        OFFSET -3.062664 -1e-06 -4e-06
                        CHANNELS 3 Zrotation Yrotation Xrotation
                        JOINT RightHandPinky4
                        {
                          OFFSET -1.546529 2e-06 4e-06
                          CHANNELS 3 Zrotation Yrotation Xrotation
                          JOINT RightHandPinkyEnd
                          {
                            OFFSET -1.952341 0.0 -4e-06
                            CHANNELS 3 Zrotation Yrotation Xrotation
                          }
                        }
                      }
                    }
                  }
                }
              }
            }
          }
        }
      }
    }
    JOINT LeftLeg
    {
      OFFSET -8.443107 2.567604 10.043214
      CHANNELS 3 Zrotation Yrotation Xrotation
      JOINT LeftShin
      {
        OFFSET 43.229198 1e-06 -1e-06
        CHANNELS 3 Zrotation Yrotation Xrotation
        JOINT LeftFoot
        {
          OFFSET 42.298611 1e-06 1e-06
          CHANNELS 3 Zrotation Yrotation Xrotation
          JOINT LeftToeBase
          {
            OFFSET 14.165858 1e-06 0.0
            CHANNELS 3 Zrotation Yrotation Xrotation
            JOINT LeftToeEnd
            {
              OFFSET 6.7141 -0.234461 0.0
              CHANNELS 3 Zrotation Yrotation Xrotation
            }
          }
        }
      }
    }
    JOINT RightLeg
    {
      OFFSET -8.303923 2.592729 -10.047278
      CHANNELS 3 Zrotation Yrotation Xrotation
      JOINT RightShin
      {
        OFFSET -43.369682 0.0 1e-06
        CHANNELS 3 Zrotation Yrotation Xrotation
        JOINT RightFoot
        {
          OFFSET -42.260784 4e-06 2e-06
          CHANNELS 3 Zrotation Yrotation Xrotation
          JOINT RightToeBase
          {
            OFFSET -14.222245 -2e-06 -1e-06
            CHANNELS 3 Zrotation Yrotation Xrotation
            JOINT RightToeEnd
            {
              OFFSET -6.660062 0.232574 -2e-06
              CHANNELS 3 Zrotation Yrotation Xrotation
            }
          }
        }
      }
    }
  }
}
MOTION
Frames: 5
Frame Time: 0.03333333333333333
0.0 0.0 0.0 0.0 -0.0 0.0 0.408579 99.340508 -1.807182 89.443573 3.442894 90.031395 -1.300226 0.671371 -0.320031 -11.242436 -0.509357 -0.450691 14.732222 0.246616 -2.768196 26.142992 -1.771783 2.693046 -2.643567 -0.576947 -0.897823 -34.078648 0.131815 -1.799292 6e-06 0.0 -0.0 0.026252 0.025828 0.027094 0.038795 -0.007045 0.020624 0.031418 0.055693 0.041292 -132.253647 -71.945801 147.117386 34.091572 -52.568146 22.270418 22.757318 0.274506 -0.001247 -2.39477 -2.042644 4.163056 17.636625 -26.322729 52.411194 -19.46665 -14.395596 29.410385 1e-06 -8.774821 -1e-06 16.358307 -17.926624 5.899924 -0.609776 -1.795653 -3.889328 -4.807089 -11.046807 -2.937848 3e-06 -20.976013 -3e-06 -5.019972 -25.033554 -4.031879 7e-06 -1e-06 2e-06 -10.634533 -5.68697 -3.565584 10.57327 -17.922945 -3.1139 2e-06 -13.821204 -1e-06 -0.501784 -31.181498 -4.027012 -11.252479 -60.006245 6.96661 -13.982714 -7.150198 -2.875041 13.772727 -8.401488 -3.218242 0.347727 -34.21154 0.771655 -0.96303 -17.733366 2.62102 -1e-06 0.0 -1e-06 -17.34642 -20.095215 -4.201779 21.757557 -1.638373 3.866429 1e-06 -6.338821 -0.0 -1.697592 -22.591738 -6.194005 -1e-06 -3e-06 -0.0 43.600845 -74.622055 150.562469 25.6819 -59.889824 7.385806 26.919058 0.025295 0.037597 -3.232248 0.928007 -1.523303 22.182116 -20.375893 49.933319 -16.701811 -16.743528 28.476528 -2e-06 -12.6906 -0.0 16.07819 -17.583664 2.576621 -0.105919 -1.513855 -4.275881 -5.039041 -5.612873 -2.953556 4e-06 -11.020525 -2e-06 -6.111299 -15.895334 -3.84047 0.0 -2e-06 -1e-06 -10.283373 -5.680289 -4.34184 11.028296 -11.302404 -2.372633 -1.38427 -14.238581 -6.32012 -0.625438 -26.924191 -3.827603 -3.887746 -49.861729 -3.886263 -13.708523 -7.363475 -3.720939 18.141146 -14.052738 -3.242674 6e-06 -18.78727 -2e-06 -0.429711 -8.456042 2.555503 -0.0 1e-06 1e-06 -15.923534 -20.094482 -5.473585 30.41921 -7.190825 1.735926 3e-06 -8.162929 1e-06 -1.861902 -22.861467 -6.167942 -0.0 -4e-06 -1e-06 171.967911 -3.443504 -5.013444 21.970179 -0.022297 0.093591 -79.380295 -1.078007 -4.390002 -9.164221 1.609516 2.040917 -0.999999 -0.0 0.0 -6.848688 -2.3544 -7.308159 20.684324 0.008951 -0.089827 -78.740417 -7.574129 -6.187432 -8.27379 0.828765 1.637979 -1.000003 -1e-06 0.0 
0.0 0.0 0.0 0.0 -0.0 0.0 0.384778 99.365776 -1.833821 89.444748 3.451587 90.009285 -1.301356 0.63042 -0.354205 -11.232461 -0.479426 -0.380907 14.742709 0.23802 -2.814239 26.115091 -1.826955 2.689195 -2.605788 -0.57212 -0.848291 -34.05344 0.077323 -1.804677 6e-06 -0.0 -0.0 0.027016 0.02728 0.057335 0.051341 -0.004419 0.05163 0.040862 0.056148 0.070599 -132.201492 -71.969635 147.097214 34.244381 -52.61919 22.202599 22.743885 0.213666 -0.037531 -2.309404 -1.9959 4.197423 17.636637 -26.322733 52.411186 -19.466665 -14.3956 29.410395 -0.0 -8.774822 -2e-06 16.326956 -17.903818 5.896052 -0.609776 -1.795654 -3.889328 -4.807088 -11.046811 -2.937851 6e-06 -20.976017 -4e-06 -5.019971 -25.033554 -4.031878 7e-06 0.0 1e-06 -10.634535 -5.68697 -3.565585 10.573277 -17.922955 -3.113904 4e-06 -13.821209 -0.0 -0.501779 -31.181505 -4.027014 -11.21746 -59.975586 7.004311 -13.982716 -7.150198 -2.87504 13.772733 -8.401494 -3.218245 0.347737 -34.211555 0.771655 -0.963028 -17.733374 2.621022 1e-06 -1e-06 0.0 -17.346416 -20.095217 -4.20178 21.757561 -1.638376 3.866424 2e-06 -6.338823 1e-06 -1.697588 -22.591745 -6.194005 0.0 -3e-06 0.0 43.578846 -74.601532 150.661972 25.698656 -59.954903 7.383461 26.805952 0.035701 0.020606 -3.168523 0.873834 -1.510702 22.182119 -20.375895 49.933327 -16.701818 -16.74353 28.476538 -3e-06 -12.690602 1e-06 16.103546 -17.584715 2.570281 -0.105918 -1.513856 -4.275882 -5.03904 -5.612872 -2.953556 4e-06 -11.020526 -3e-06 -6.111297 -15.895334 -3.840472 0.0 -2e-06 -0.0 -10.283371 -5.680289 -4.341841 11.028296 -11.302409 -2.372634 -1.384268 -14.238586 -6.320124 -0.625436 -26.924198 -3.827602 -3.897144 -49.999638 -3.85322 -13.708524 -7.363478 -3.720942 18.141148 -14.052744 -3.242675 9e-06 -18.787271 -4e-06 -0.429712 -8.456043 2.555504 -0.0 1e-06 -0.0 -15.923536 -20.094492 -5.473588 30.419218 -7.190829 1.735924 2e-06 -8.16293 -0.0 -1.861898 -22.861475 -6.167947 0.0 -6e-06 -2e-06 172.05777 -3.448958 -4.994888 21.777889 -0.01411 0.131726 -79.269981 -1.064869 -4.492843 -9.25441 1.63462 2.039736 -0.999999 0.0 -0.0 -6.759206 -2.324665 -7.25697 20.499104 0.002009 -0.073707 -78.639198 -7.595807 -6.175397 -8.305911 0.824825 1.640539 -1.000002 -1e-06 0.0 
0.0 0.0 0.0 0.0 -0.0 0.0 0.358897 99.371277 -1.858353 89.459236 3.442718 89.976112 -1.317418 0.586012 -0.382564 -11.243795 -0.467685 -0.356203 14.803976 0.228517 -2.814152 26.030399 -1.898114 2.70339 -2.608493 -0.551899 -0.846643 -33.954849 0.038803 -1.816113 5e-06 -0.0 0.0 0.027254 0.02983 0.074669 0.044807 -0.00222 0.071066 0.034848 0.058965 0.085493 -132.200745 -72.008224 147.087204 34.318066 -52.701786 22.303251 22.833572 0.174121 -0.062992 -2.215735 -1.974643 3.990093 17.636625 -26.322733 52.411198 -19.466663 -14.395598 29.410395 -1e-06 -8.774821 0.0 16.322378 -17.920532 5.897603 -0.609776 -1.795654 -3.88933 -4.807087 -11.046809 -2.937852 5e-06 -20.976015 -2e-06 -5.019973 -25.033554 -4.031878 8e-06 -1e-06 -0.0 -10.634533 -5.68697 -3.565585 10.573272 -17.922951 -3.113903 4e-06 -13.821206 -0.0 -0.501777 -31.181505 -4.027013 -11.234058 -59.910419 7.010083 -13.982712 -7.150198 -2.875043 13.772731 -8.401492 -3.218245 0.347736 -34.211555 0.771654 -0.963027 -17.733372 2.621018 -0.0 -2e-06 0.0 -17.346416 -20.095217 -4.201786 21.757557 -1.638376 3.86643 1e-06 -6.338822 0.0 -1.697588 -22.591745 -6.194006 -0.0 -2e-06 -0.0 43.476097 -74.576653 150.823593 25.677565 -59.985981 7.481585 26.754946 0.030877 0.00526 -3.10109 0.843461 -1.515244 22.182114 -20.375895 49.933319 -16.701811 -16.74353 28.476532 -2e-06 -12.690601 0.0 16.116135 -17.560179 2.578918 -0.105918 -1.513855 -4.275882 -5.039041 -5.612871 -2.953557 3e-06 -11.020521 -1e-06 -6.111298 -15.89533 -3.840471 0.0 -1e-06 0.0 -10.283369 -5.680288 -4.341837 11.028294 -11.302402 -2.372633 -1.38427 -14.238577 -6.32012 -0.625439 -26.924183 -3.8276 -3.901235 -50.050377 -3.841632 -13.708524 -7.363475 -3.720941 18.141148 -14.052736 -3.242671 5e-06 -18.787266 -0.0 -0.429712 -8.456042 2.555503 -1e-06 2e-06 1e-06 -15.923538 -20.094479 -5.473583 30.41921 -7.190823 1.735926 2e-06 -8.162927 -0.0 -1.861905 -22.861462 -6.16794 -0.0 -3e-06 -2e-06 172.067825 -3.443227 -4.975217 21.714169 -0.013857 0.149245 -79.224434 -1.067045 -4.536155 -9.253244 1.642209 2.039804 -0.999999 -0.0 0.0 -6.791102 -2.247476 -7.222944 20.487232 0.007438 -0.072974 -78.640152 -7.644197 -6.089024 -8.283269 0.828172 1.642858 -1.000001 -1e-06 0.0 
0.0 0.0 0.0 0.0 -0.0 0.0 0.330923 99.374237 -1.885609 89.460991 3.419845 89.955284 -1.321732 0.553084 -0.398629 -11.254652 -0.461622 -0.361706 14.863496 0.222157 -2.787059 25.915133 -1.976768 2.714398 -2.624187 -0.542981 -0.832049 -33.905502 0.020426 -1.841717 6e-06 -0.0 0.0 0.027327 0.0305 0.078986 0.030084 -0.001755 0.077212 0.021131 0.059725 0.087276 -132.234665 -72.054466 147.103287 34.405693 -52.807625 22.521488 22.973011 0.172695 -0.065643 -2.093334 -1.956941 3.76077 17.636629 -26.322729 52.411201 -19.466663 -14.395598 29.410393 -0.0 -8.774821 -3e-06 16.309078 -17.920605 5.892239 -0.609777 -1.795654 -3.889329 -4.807087 -11.046809 -2.937852 6e-06 -20.976015 -4e-06 -5.019969 -25.03356 -4.03188 7e-06 -1e-06 -1e-06 -10.634533 -5.68697 -3.565587 10.573272 -17.922949 -3.113903 4e-06 -13.821206 -2e-06 -0.501779 -31.181505 -4.027015 -11.224558 -59.842472 6.979709 -13.982714 -7.150197 -2.875044 13.772731 -8.401492 -3.218241 0.347734 -34.211552 0.771653 -0.963027 -17.73337 2.621018 -1e-06 -1e-06 0.0 -17.346416 -20.095217 -4.201783 21.757557 -1.638376 3.866428 1e-06 -6.338823 -1e-06 -1.697588 -22.591742 -6.194007 1e-06 -5e-06 -2e-06 43.308544 -74.570183 151.035873 25.650972 -59.999496 7.77631 26.756979 0.063825 0.006594 -3.075843 0.724603 -1.529499 22.182112 -20.375885 49.933308 -16.701809 -16.743528 28.476526 -3e-06 -12.6906 -1e-06 16.131262 -17.541918 2.590291 -0.105919 -1.513856 -4.27588 -5.03904 -5.61287 -2.953555 4e-06 -11.02052 -1e-06 -6.111297 -15.895328 -3.84047 0.0 -1e-06 0.0 -10.283369 -5.680287 -4.341838 11.028292 -11.302402 -2.372631 -1.384269 -14.238579 -6.320121 -0.625438 -26.924183 -3.827602 -3.92976 -50.038235 -3.824031 -13.708525 -7.363475 -3.720939 18.14115 -14.052736 -3.242675 6e-06 -18.787266 -2e-06 -0.429711 -8.456039 2.555503 -0.0 -0.0 1e-06 -15.923536 -20.094482 -5.473582 30.41921 -7.190824 1.735926 2e-06 -8.162928 1e-06 -1.861903 -22.861465 -6.167942 1e-06 -4e-06 -2e-06 172.039703 -3.457439 -4.972373 21.68885 -0.015981 0.15446 -79.191833 -1.067538 -4.549025 -9.222253 1.638465 2.037337 -0.999999 0.0 0.0 -6.835844 -2.225779 -7.175588 20.48274 0.015082 -0.0864 -78.619354 -7.67165 -6.086625 -8.254782 0.827314 1.643226 -1.000003 -0.0 0.0 
0.0 0.0 0.0 0.0 -0.0 0.0 0.306951 99.378586 -1.91611 89.445274 3.366206 89.957527 -1.326496 0.539794 -0.402065 -11.261695 -0.456574 -0.378767 14.911536 0.211771 -2.765391 25.749065 -2.04964 2.710756 -2.634804 -0.527444 -0.79886 -33.924541 0.014413 -1.866617 6e-06 0.0 -0.0 0.02988 0.0323 0.08593 0.02295 -0.000239 0.085381 0.013686 0.061769 0.092145 -132.279968 -72.091019 147.144577 34.591103 -52.897148 22.751797 23.09338 0.181777 -0.053672 -1.974344 -1.968361 3.613025 17.636629 -26.322735 52.411194 -19.466665 -14.395597 29.410393 -0.0 -8.774821 -3e-06 16.267275 -17.897133 5.910166 -0.609777 -1.795653 -3.889327 -4.807087 -11.046811 -2.937851 5e-06 -20.976015 -3e-06 -5.019967 -25.033554 -4.031879 6e-06 -1e-06 2e-06 -10.634533 -5.68697 -3.565588 10.573274 -17.922953 -3.113902 4e-06 -13.821211 -2e-06 -0.501777 -31.181507 -4.027014 -11.223764 -59.786682 6.989236 -13.982712 -7.150198 -2.875044 13.77273 -8.401493 -3.218242 0.347732 -34.211552 0.771654 -0.963031 -17.73337 2.621021 -1e-06 -1e-06 -2e-06 -17.346415 -20.095219 -4.201785 21.757555 -1.638376 3.866428 1e-06 -6.338824 1e-06 -1.697588 -22.591751 -6.194005 1e-06 -2e-06 -1e-06 43.11459 -74.565628 151.247131 25.640776 -59.985699 8.186488 26.762552 0.101951 0.017882 -3.045664 0.556298 -1.534737 22.182117 -20.375883 49.9333 -16.701813 -16.743528 28.476524 -2e-06 -12.6906 -1e-06 16.136518 -17.542297 2.606298 -0.105919 -1.513856 -4.27588 -5.039041 -5.612872 -2.953557 4e-06 -11.020524 -2e-06 -6.111297 -15.89533 -3.84047 0.0 -1e-06 0.0 -10.283369 -5.680288 -4.341838 11.028293 -11.302404 -2.372632 -1.384269 -14.23858 -6.320123 -0.625438 -26.924191 -3.827603 -3.969128 -50.019077 -3.804523 -13.708526 -7.363476 -3.720939 18.14115 -14.052739 -3.242674 8e-06 -18.78727 -3e-06 -0.42971 -8.456043 2.555502 -0.0 -1e-06 -0.0 -15.923536 -20.094484 -5.473582 30.419214 -7.190826 1.735926 4e-06 -8.162927 -0.0 -1.8619 -22.861467 -6.167944 1e-06 -4e-06 -2e-06 171.959229 -3.487915 -4.966888 21.688375 -0.021455 0.151302 -79.16362 -1.048666 -4.548897 -9.176837 1.631837 2.032867 -1.0 -0.0 0.0 -6.901241 -2.188158 -7.150739 20.454308 0.020688 -0.099929 -78.583473 -7.698255 -6.093948 -8.215049 0.8234 1.643506 -1.000002 -0.0 -0.0 
